<?xml version="1.0" encoding="UTF-8"?>
<svg id="Calque_2" xmlns="http://www.w3.org/2000/svg" viewBox="0 0 104.76 13.36">
  <defs>
    <style>
      .cls-1 {
        fill: #357AF1;
      }

      .cls-2 {
        fill: #F17A35;
      }

      .fischli {
        fill: #F1357A;
      }
    </style>
  </defs>
  <g id="Calque_1-2" data-name="Calque_1">
    <g>
      <path class="fischli" d="M1.2,1.7h6.53v1.07H2.48v2.69h4.89v1.08H2.48v3.66h-1.28V1.7Z"/>
      <path class="fischli" d="M9.13,1.2h1.22v1.39h-1.22v-1.39ZM9.13,4.13h1.22v6.08h-1.22v-6.08Z"/>
      <path class="fischli" d="M13,8.37c.21.69.81,1.1,1.88,1.1,1.14,0,1.53-.39,1.53-.91s-.3-.82-1.81-1c-2.16-.27-2.55-1.03-2.55-1.79,0-.8.63-1.81,2.6-1.81,2.11,0,2.72,1.08,2.78,1.82h-1.22c-.09-.36-.34-.93-1.63-.93-1.09,0-1.32.46-1.32.8,0,.43.28.69,1.64.88,2.3.31,2.72,1.03,2.72,1.93,0,1.09-.83,1.92-2.82,1.92-1.76,0-2.82-.75-3.03-2.01h1.23Z"/>
      <path class="fischli" d="M24.84,8.29c-.29,1.1-1.25,2.08-3.01,2.08-2.18,0-3.22-1.46-3.22-3.19s1.18-3.22,3.23-3.22,2.85,1.33,2.97,2.12h-1.22c-.2-.54-.66-1.15-1.77-1.15-1.25,0-1.97.93-1.97,2.23s.69,2.23,1.98,2.23c.96,0,1.48-.43,1.78-1.11h1.22Z"/>
      <path class="fischli" d="M27.52,1.2v3.99c.22-.44.77-1.23,2.23-1.23s2.32.85,2.32,2.58v3.67h-1.23v-3.49c0-1-.35-1.74-1.46-1.74-1.25,0-1.85.99-1.85,2.26v2.98h-1.22V1.2h1.21Z"/>
      <path class="fischli" d="M34,10.21V1.2h1.22v9.01h-1.22Z"/>
      <path class="fischli" d="M37.18,1.2h1.22v1.39h-1.22v-1.39ZM37.18,4.13h1.22v6.08h-1.22v-6.08Z"/>
      <path class="cls-2" d="M49.52,8.44c0,.59,0,1.18,0,1.77h-1.18c-.02-.17-.04-.58-.04-1-.3.67-.84,1.17-2.17,1.17s-2.28-.71-2.28-2.48v-3.77h1.22v3.55c0,.91.36,1.68,1.42,1.68,1.27,0,1.81-.74,1.81-2.47v-2.76h1.22v4.31Z"/>
      <path class="cls-2" d="M51.44,5.66c0-.51,0-1.08-.01-1.53h1.19c.02.21.04.7.04,1.09.27-.57.89-1.26,2.18-1.26,1.43,0,2.36.88,2.36,2.54v3.71h-1.23v-3.49c0-.97-.37-1.75-1.48-1.75-1.23,0-1.83.93-1.83,2.31v2.93h-1.22v-4.55Z"/>
      <path class="cls-2" d="M65.06,1.2v7.25c0,.58,0,1.18.01,1.76h-1.19c-.03-.25-.04-.61-.05-.9-.31.51-.82,1.07-2.21,1.07-1.75,0-2.95-1.31-2.95-3.16,0-2.01,1.52-3.26,3.09-3.26,1.4,0,1.9.62,2.07.91V1.2h1.22ZM59.94,7.2c0,1.1.67,2.17,1.96,2.17,1.4,0,1.99-.9,1.99-2.22s-.47-2.18-1.95-2.18c-1.35,0-2,1.1-2,2.23Z"/>
      <path class="cls-1" d="M78.61,7.7c-.48,1.46-1.56,2.69-4.01,2.69-2.85,0-4.38-1.99-4.38-4.42s1.7-4.45,4.44-4.45c2.47,0,3.64,1.34,3.97,2.74h-1.32c-.35-.85-1.01-1.67-2.67-1.67-1.92,0-3.07,1.42-3.07,3.35s1.13,3.41,3.08,3.41c1.57,0,2.2-.67,2.65-1.63h1.3Z"/>
      <path class="cls-1" d="M81.37,1.2v3.99c.22-.44.77-1.23,2.23-1.23s2.32.85,2.32,2.58v3.67h-1.23v-3.49c0-1-.35-1.74-1.46-1.74-1.25,0-1.85.99-1.85,2.26v2.98h-1.22V1.2h1.21Z"/>
      <path class="cls-1" d="M87.88,1.2h1.22v1.39h-1.22v-1.39ZM87.88,4.13h1.22v6.08h-1.22v-6.08Z"/>
      <path class="cls-1" d="M92.24,9.34v3.53h-1.22v-7.22c0-.5,0-1.01-.01-1.52h1.19c.02.17.04.58.04,1.02.36-.62,1.06-1.19,2.32-1.19,1.63,0,2.84,1.34,2.84,3.1,0,2-1.39,3.32-3.03,3.32-1.23,0-1.8-.53-2.12-1.04ZM96.14,7.12c0-1.06-.61-2.14-1.95-2.14s-1.99.97-1.99,2.22.65,2.16,1.96,2.16,1.97-1.04,1.97-2.24Z"/>
      <path class="cls-1" d="M99.62,8.37c.21.69.81,1.1,1.88,1.1,1.14,0,1.53-.39,1.53-.91s-.3-.82-1.81-1c-2.16-.27-2.55-1.03-2.55-1.79,0-.8.63-1.81,2.6-1.81,2.11,0,2.72,1.08,2.78,1.82h-1.22c-.09-.36-.34-.93-1.63-.93-1.09,0-1.32.46-1.32.8,0,.43.28.69,1.64.88,2.3.31,2.72,1.03,2.72,1.93,0,1.09-.83,1.92-2.82,1.92-1.76,0-2.82-.75-3.03-2.01h1.23Z"/>
    </g>
  </g>
</svg>