<?xml version="1.0" encoding="UTF-8"?>
<svg id="Calque_2" xmlns="http://www.w3.org/2000/svg" viewBox="0 0 91.82 11.24">
  <defs>
    <style>
      .cls-1 {
        fill: #f17a35;
      }

      .cls-2 {
        fill: #f1357a;
      }
    </style>
  </defs>
  <g id="Calque_2-2" data-name="Calque_2">
    <g>
      <path class="cls-2" d="M0,3.12l1.64-.07h3.69v1.29H0s0-1.22,0-1.22ZM1.58,2.84C1.58,1.47,2.37.41,4.19.41c.66,0,1.27.14,1.78.32l-.32,1.21c-.39-.15-.8-.24-1.26-.24-.81,0-1.17.37-1.17,1.13v6.15h-1.63V2.84h-.01Z"/>
      <path class="cls-2" d="M9.58,4.34h-2.45v-1.29h4.08v5.93h-1.64v-4.64h.01ZM9.21,1.04c0-.61.47-1.04,1.11-1.04s1.11.43,1.11,1.04-.47,1.03-1.11,1.03-1.11-.41-1.11-1.03Z"/>
      <path class="cls-2" d="M14.04,8.21l.7-1.03c.72.46,1.54.72,2.42.72.71,0,1.03-.25,1.03-.58,0-.35-.28-.5-1.52-.76-1.6-.34-2.26-.92-2.26-1.83,0-1.08,1-1.83,2.68-1.83,1.03,0,1.93.41,2.54.8l-.74.99c-.59-.36-1.28-.58-1.95-.58-.62,0-.91.23-.91.54,0,.36.39.46,1.43.69,1.85.41,2.36.93,2.36,1.89,0,1.06-1.01,1.89-2.88,1.89-1.07,0-2.16-.41-2.9-.91Z"/>
      <path class="cls-2" d="M21.48.56h1.64v2.1l-.1,1.19h.04c.46-.49,1.11-.93,2-.93,1.34,0,1.94.9,1.94,2.41v3.67h-1.64v-3.45c0-.84-.25-1.22-.95-1.22-.51,0-.85.24-1.31.69v3.99h-1.64V.56h.02Z"/>
      <path class="cls-1" d="M35.29,6.9c0-2.39,3.24-2.6,3.24-4.15,0-.38-.14-.65-.53-.65-.34,0-.57.35-.57.92,0,1.28,1.59,3.01,3.08,4,.53.4,1.04.67,1.48.78l-.4,1.33c-.67-.17-1.35-.53-2.07-1.06-1.83-1.31-3.46-3.56-3.46-5.03,0-1.1.74-2.02,1.9-2.02s1.82.69,1.82,1.73c0,1.95-2.95,2.49-2.95,4.06,0,.64.47,1.07,1.14,1.07.48,0,.96-.33,1.38-.82.51-.62.9-1.44,1.12-2.47h1.49c-.3,1.18-.77,2.25-1.48,3.2-.67.8-1.55,1.33-2.72,1.33-1.59,0-2.48-1.01-2.48-2.23h0Z"/>
      <path class="cls-1" d="M42.49,6.9c0-2.39,3.24-2.6,3.24-4.15,0-.38-.14-.65-.53-.65-.34,0-.57.35-.57.92,0,1.28,1.59,3.01,3.08,4,.53.4,1.04.67,1.48.78l-.4,1.33c-.67-.17-1.35-.53-2.07-1.06-1.83-1.31-3.46-3.56-3.46-5.03,0-1.1.74-2.02,1.9-2.02s1.82.69,1.82,1.73c0,1.95-2.95,2.49-2.95,4.06,0,.64.47,1.07,1.14,1.07.48,0,.96-.33,1.38-.82.51-.62.9-1.44,1.12-2.47h1.49c-.3,1.18-.77,2.25-1.48,3.2-.67.8-1.55,1.33-2.72,1.33-1.59,0-2.48-1.01-2.48-2.23h.01Z"/>
      <path class="cls-2" d="M57.4,6.02c0-1.98,1.59-3.11,3.41-3.11.94,0,1.71.34,2.21.82l-.76,1.02c-.46-.34-.89-.51-1.36-.51-1.08,0-1.82.7-1.82,1.79s.73,1.78,1.77,1.78c.64,0,1.17-.28,1.6-.59l.67,1.04c-.71.6-1.6.88-2.42.88-1.87,0-3.29-1.14-3.29-3.1v-.02Z"/>
      <path class="cls-2" d="M64.67.56h1.64v2.1l-.1,1.19h.04c.46-.49,1.11-.93,2-.93,1.34,0,1.94.9,1.94,2.41v3.67h-1.64v-3.45c0-.84-.25-1.22-.95-1.22-.51,0-.85.24-1.31.69v3.99h-1.64V.56h.02Z"/>
      <path class="cls-2" d="M74.38,4.34h-2.45v-1.29h4.08v5.93h-1.64v-4.64h0ZM74,1.04c0-.61.47-1.04,1.11-1.04s1.11.43,1.11,1.04-.47,1.03-1.11,1.03-1.11-.41-1.11-1.03Z"/>
      <path class="cls-2" d="M79.07,3.05h1.33l.12.63h.04c.49-.45,1.16-.77,1.81-.77,1.5,0,2.39,1.19,2.39,3.02,0,2.03-1.25,3.2-2.59,3.2-.53,0-1.07-.24-1.51-.66h-.04l.08.99v1.78h-1.64V3.05h0ZM83.1,5.94c0-1.1-.37-1.69-1.19-1.69-.4,0-.79.18-1.2.6v2.48c.37.33.78.44,1.11.44.71,0,1.28-.58,1.28-1.84h0Z"/>
      <path class="cls-2" d="M86.04,8.21l.7-1.03c.72.46,1.54.72,2.42.72.71,0,1.03-.25,1.03-.58,0-.35-.28-.5-1.52-.76-1.6-.34-2.26-.92-2.26-1.83,0-1.08,1-1.83,2.68-1.83,1.03,0,1.93.41,2.54.8l-.74.99c-.59-.36-1.28-.58-1.95-.58-.62,0-.91.23-.91.54,0,.36.39.46,1.43.69,1.85.41,2.36.93,2.36,1.89,0,1.06-1.01,1.89-2.88,1.89-1.08,0-2.16-.41-2.9-.91Z"/>
    </g>
  </g>
</svg>