<?xml version="1.0" encoding="UTF-8"?>
<svg xmlns="http://www.w3.org/2000/svg" version="1.1" viewBox="0 0 195.9 126.3">
  <defs>
    <style>
      .cls-1 {
        fill: #f17a35;
      }

      .cls-2 {
        font-family: MyriadPro-Regular, 'Myriad Pro';
        font-size: 12px;
      }

      .cls-3 {
        fill: #f1357a;
      }

      .cls-4 {
        fill: #357af1;
      }
    </style>
  </defs>
  <!-- Generator: Adobe Illustrator 28.6.0, SVG Export Plug-In . SVG Version: 1.2.0 Build 709)  -->
  <g>
    <g id="Calque_2">
      <g id="Calque_1-2">
        <g>
          <path class="cls-4" d="M17.7,21.4h-2.5v-1.3h4.1v5.9h-1.6v-4.6h0ZM17.3,18.1c0-.6.5-1,1.1-1s1.1.4,1.1,1-.5,1-1.1,1-1.1-.4-1.1-1Z"/>
          <path class="cls-4" d="M22.5,20.2h1.6c0,0,3.7,0,3.7,0v1.3h-5.3s0-1.2,0-1.2ZM24.1,19.9c0-1.4.8-2.4,2.6-2.4s1.3.1,1.8.3l-.3,1.2c-.4-.2-.8-.2-1.3-.2-.8,0-1.2.4-1.2,1.1v6.2h-1.6s0-6.1,0-6.1Z"/>
          <path class="cls-4" d="M30.9,22.7c0-2.3,1-4.1,2.6-5.5l.9.7c-1.5,1.4-2.1,2.8-2.1,4.7s.6,3.3,2.1,4.7l-.9.7c-1.6-1.4-2.6-3.2-2.6-5.5Z"/>
          <path class="cls-3" d="M36.9,20.2h1.6c0,0,3.7,0,3.7,0v1.3h-5.3s0-1.2,0-1.2ZM38.5,19.9c0-1.4.8-2.4,2.6-2.4s1.3.1,1.8.3l-.3,1.2c-.4-.2-.8-.2-1.3-.2-.8,0-1.2.4-1.2,1.1v6.2h-1.6v-6.1h0Z"/>
          <path class="cls-3" d="M46.5,21.4h-2.5v-1.3h4.1v5.9h-1.6v-4.6h0ZM46.1,18.1c0-.6.5-1,1.1-1s1.1.4,1.1,1-.5,1-1.1,1-1.1-.4-1.1-1Z"/>
          <path class="cls-3" d="M50.9,25.3l.7-1c.7.5,1.5.7,2.4.7s1-.2,1-.6-.3-.5-1.5-.8c-1.6-.3-2.3-.9-2.3-1.8s1-1.8,2.7-1.8,1.9.4,2.5.8l-.7,1c-.6-.4-1.3-.6-2-.6s-.9.2-.9.5.4.5,1.4.7c1.8.4,2.4.9,2.4,1.9s-1,1.9-2.9,1.9-2.2-.4-2.9-.9Z"/>
          <path class="cls-3" d="M58.4,17.6h1.6v3.3c0,0,0,0,0,0,.5-.5,1.1-.9,2-.9,1.3,0,1.9.9,1.9,2.4v3.7h-1.6v-3.4c0-.8-.2-1.2-1-1.2s-.8.2-1.3.7v4h-1.6v-8.4h0Z"/>
          <path class="cls-1" d="M72.2,24c0-2.4,3.2-2.6,3.2-4.2s-.1-.7-.5-.7-.6.3-.6.9c0,1.3,1.6,3,3.1,4,.5.4,1,.7,1.5.8l-.4,1.3c-.7-.2-1.3-.5-2.1-1.1-1.8-1.3-3.5-3.6-3.5-5s.7-2,1.9-2,1.8.7,1.8,1.7c0,2-3,2.5-3,4.1s.5,1.1,1.1,1.1,1-.3,1.4-.8c.5-.6.9-1.4,1.1-2.5h1.5c-.3,1.2-.8,2.2-1.5,3.2-.7.8-1.5,1.3-2.7,1.3s-2.5-1-2.5-2.2h0Z"/>
          <path class="cls-1" d="M79.4,24c0-2.4,3.2-2.6,3.2-4.2s-.1-.7-.5-.7-.6.3-.6.9c0,1.3,1.6,3,3.1,4,.5.4,1,.7,1.5.8l-.4,1.3c-.7-.2-1.3-.5-2.1-1.1-1.8-1.3-3.5-3.6-3.5-5s.7-2,1.9-2,1.8.7,1.8,1.7c0,2-2.9,2.5-2.9,4.1s.5,1.1,1.1,1.1,1-.3,1.4-.8c.5-.6.9-1.4,1.1-2.5h1.5c-.3,1.2-.8,2.2-1.5,3.2-.7.8-1.6,1.3-2.7,1.3s-2.5-1-2.5-2.2h0Z"/>
          <path class="cls-3" d="M94.3,23.1c0-2,1.6-3.1,3.4-3.1s1.7.3,2.2.8l-.8,1c-.5-.3-.9-.5-1.4-.5-1.1,0-1.8.7-1.8,1.8s.7,1.8,1.8,1.8,1.2-.3,1.6-.6l.7,1c-.7.6-1.6.9-2.4.9-1.9,0-3.3-1.1-3.3-3.1h0Z"/>
          <path class="cls-3" d="M101.6,17.6h1.6v3.3c0,0,0,0,0,0,.5-.5,1.1-.9,2-.9,1.3,0,1.9.9,1.9,2.4v3.7h-1.6v-3.4c0-.8-.2-1.2-.9-1.2s-.8.2-1.3.7v4h-1.6v-8.4h0Z"/>
          <path class="cls-3" d="M111.3,21.4h-2.4v-1.3h4.1v5.9h-1.6v-4.6h0ZM110.9,18.1c0-.6.5-1,1.1-1s1.1.4,1.1,1-.5,1-1.1,1-1.1-.4-1.1-1Z"/>
          <path class="cls-3" d="M116,20.1h1.3v.6h.2c.5-.4,1.2-.8,1.8-.8,1.5,0,2.4,1.2,2.4,3s-1.2,3.2-2.6,3.2-1.1-.2-1.5-.7h0v1c0,0,0,1.8,0,1.8h-1.6v-8.2h0ZM120,23c0-1.1-.4-1.7-1.2-1.7s-.8.2-1.2.6v2.5c.4.3.8.4,1.1.4.7,0,1.3-.6,1.3-1.8h0Z"/>
          <path class="cls-3" d="M122.9,25.3l.7-1c.7.5,1.5.7,2.4.7s1-.2,1-.6-.3-.5-1.5-.8c-1.6-.3-2.3-.9-2.3-1.8s1-1.8,2.7-1.8,1.9.4,2.5.8l-.7,1c-.6-.4-1.3-.6-1.9-.6s-.9.2-.9.5.4.5,1.4.7c1.8.4,2.4.9,2.4,1.9s-1,1.9-2.9,1.9-2.2-.4-2.9-.9Z"/>
          <path class="cls-4" d="M131,27.5c1.5-1.4,2.1-2.8,2.1-4.7s-.6-3.4-2.1-4.7l.9-.7c1.6,1.4,2.6,3.2,2.6,5.5s-1,4.1-2.6,5.5c0,0-.9-.7-.9-.7Z"/>
          <path class="cls-4" d="M139.5,26.2c0-.9.1-1.3.1-2.1s-.3-.9-1.7-.9v-1c1.3,0,1.7-.5,1.7-.9,0-.8-.1-1.3-.1-2.1,0-1.3.7-1.7,2.2-1.7h.9v.9h-.5c-1,0-1.3.2-1.3.9s0,1.3,0,2-.3,1.2-1.2,1.4h0c.9.2,1.2.6,1.2,1.4s0,1.3,0,2,.2.9,1.3.9h.5v.9h-.9c-1.5,0-2.2-.4-2.2-1.7Z"/>
          <path class="cls-4" d="M148.8,17.5h1.4l-3.9,10.4h-1.4s3.9-10.4,3.9-10.4Z"/>
          <path class="cls-4" d="M156,17.5h1.4l-3.9,10.4h-1.4s3.9-10.4,3.9-10.4Z"/>
          <path class="cls-4" d="M159,23.1c0-1.9,1.5-3.1,3.1-3.1s2.8,1.2,2.8,2.8,0,.6,0,.8h-4.6v-1.1h3.5l-.3.3c0-1-.5-1.6-1.3-1.6s-1.5.6-1.5,1.9.7,1.9,1.9,1.9,1.1-.2,1.6-.4l.6,1c-.7.4-1.5.7-2.3.7-1.8,0-3.3-1.1-3.3-3.1h0Z"/>
          <path class="cls-4" d="M166.2,24.4c0-1.3,1.1-2,4-2.2,0-.6-.5-1-1.3-1s-1.2.2-1.9.6l-.6-1.1c.8-.5,1.7-.8,2.8-.8,1.7,0,2.6.9,2.6,2.6v3.4h-1.3v-.7h-.2c-.6.5-1.4.8-2.1.8-1.2,0-2-.8-2-1.8h0ZM170.2,24.3v-1.1c-1.9.1-2.4.5-2.4,1s.4.6.9.6,1-.2,1.5-.6h0Z"/>
          <path class="cls-4" d="M174.8,23.6v-2.2h-1.5v-1.2h1.6c0,0,.2-1.9.2-1.9h1.4v1.8h2.6v1.3h-2.6v2.2c0,.9.4,1.3,1.3,1.3s.9,0,1.2-.2l.3,1.2c-.5.2-1.1.3-1.9.3-1.9,0-2.5-1-2.5-2.6h0Z"/>
          <path class="cls-4" d="M181.1,27h.5c1,0,1.3-.2,1.3-.9s0-1.2,0-2,.3-1.2,1.2-1.4h0c-.9-.2-1.2-.6-1.2-1.4s0-1.3,0-2-.2-.9-1.3-.9h-.5v-.9h.9c1.5,0,2.2.4,2.2,1.7s-.1,1.3-.1,2.1.4.9,1.7.9v1c-1.3,0-1.7.5-1.7.9,0,.8.1,1.2.1,2.1,0,1.3-.7,1.7-2.2,1.7h-.9s0-.9,0-.9Z"/>
        </g>
      </g>
      <g>
        <path class="cls-3" d="M36.9,53.2h1.6c0,0,3.7,0,3.7,0v1.3h-5.3s0-1.2,0-1.2ZM38.5,52.9c0-1.4.8-2.4,2.6-2.4s1.3.1,1.8.3l-.3,1.2c-.4-.2-.8-.2-1.3-.2-.8,0-1.2.4-1.2,1.1v6.2h-1.6v-6.1h0Z"/>
        <path class="cls-3" d="M46.5,54.4h-2.5v-1.3h4.1v5.9h-1.6v-4.6h0ZM46.1,51.1c0-.6.5-1,1.1-1s1.1.4,1.1,1-.5,1-1.1,1-1.1-.4-1.1-1Z"/>
        <path class="cls-3" d="M50.9,58.3l.7-1c.7.5,1.5.7,2.4.7s1-.2,1-.6-.3-.5-1.5-.8c-1.6-.3-2.3-.9-2.3-1.8s1-1.8,2.7-1.8,1.9.4,2.5.8l-.7,1c-.6-.4-1.3-.6-2-.6s-.9.2-.9.5.4.5,1.4.7c1.8.4,2.4.9,2.4,1.9s-1,1.9-2.9,1.9-2.2-.4-2.9-.9Z"/>
        <path class="cls-3" d="M58.4,50.6h1.6v3.3c0,0,0,0,0,0,.5-.5,1.1-.9,2-.9,1.3,0,1.9.9,1.9,2.4v3.7h-1.6v-3.4c0-.8-.2-1.2-1-1.2s-.8.2-1.3.7v4h-1.6v-8.4h0Z"/>
        <path class="cls-1" d="M72.2,57c0-2.4,3.2-2.6,3.2-4.2s-.1-.7-.5-.7-.6.3-.6.9c0,1.3,1.6,3,3.1,4,.5.4,1,.7,1.5.8l-.4,1.3c-.7-.2-1.3-.5-2.1-1.1-1.8-1.3-3.5-3.6-3.5-5s.7-2,1.9-2,1.8.7,1.8,1.7c0,2-3,2.5-3,4.1s.5,1.1,1.1,1.1,1-.3,1.4-.8c.5-.6.9-1.4,1.1-2.5h1.5c-.3,1.2-.8,2.2-1.5,3.2-.7.8-1.5,1.3-2.7,1.3s-2.5-1-2.5-2.2h0Z"/>
        <path class="cls-1" d="M79.4,57c0-2.4,3.2-2.6,3.2-4.2s-.1-.7-.5-.7-.6.3-.6.9c0,1.3,1.6,3,3.1,4,.5.4,1,.7,1.5.8l-.4,1.3c-.7-.2-1.3-.5-2.1-1.1-1.8-1.3-3.5-3.6-3.5-5s.7-2,1.9-2,1.8.7,1.8,1.7c0,2-2.9,2.5-2.9,4.1s.5,1.1,1.1,1.1,1-.3,1.4-.8c.5-.6.9-1.4,1.1-2.5h1.5c-.3,1.2-.8,2.2-1.5,3.2-.7.8-1.6,1.3-2.7,1.3s-2.5-1-2.5-2.2h0Z"/>
        <path class="cls-3" d="M94.3,56.1c0-2,1.6-3.1,3.4-3.1s1.7.3,2.2.8l-.8,1c-.5-.3-.9-.5-1.4-.5-1.1,0-1.8.7-1.8,1.8s.7,1.8,1.8,1.8,1.2-.3,1.6-.6l.7,1c-.7.6-1.6.9-2.4.9-1.9,0-3.3-1.1-3.3-3.1h0Z"/>
        <path class="cls-3" d="M101.6,50.6h1.6v3.3c0,0,0,0,0,0,.5-.5,1.1-.9,2-.9,1.3,0,1.9.9,1.9,2.4v3.7h-1.6v-3.4c0-.8-.2-1.2-.9-1.2s-.8.2-1.3.7v4h-1.6v-8.4h0Z"/>
        <path class="cls-3" d="M111.3,54.4h-2.4v-1.3h4.1v5.9h-1.6v-4.6h0ZM110.9,51.1c0-.6.5-1,1.1-1s1.1.4,1.1,1-.5,1-1.1,1-1.1-.4-1.1-1Z"/>
        <path class="cls-3" d="M116,53.1h1.3v.6h.2c.5-.4,1.2-.8,1.8-.8,1.5,0,2.4,1.2,2.4,3s-1.2,3.2-2.6,3.2-1.1-.2-1.5-.7h0v1c0,0,0,1.8,0,1.8h-1.6v-8.2h0ZM120,56c0-1.1-.4-1.7-1.2-1.7s-.8.2-1.2.6v2.5c.4.3.8.4,1.1.4.7,0,1.3-.6,1.3-1.8h0Z"/>
        <path class="cls-3" d="M122.9,58.3l.7-1c.7.5,1.5.7,2.4.7s1-.2,1-.6-.3-.5-1.5-.8c-1.6-.3-2.3-.9-2.3-1.8s1-1.8,2.7-1.8,1.9.4,2.5.8l-.7,1c-.6-.4-1.3-.6-1.9-.6s-.9.2-.9.5.4.5,1.4.7c1.8.4,2.4.9,2.4,1.9s-1,1.9-2.9,1.9-2.2-.4-2.9-.9Z"/>
      </g>
      <g>
        <g>
          <path class="cls-3" d="M36.8,78.4h1.6c0,0,3.7,0,3.7,0v1.3h-5.3s0-1.2,0-1.2ZM38.3,78.2c0-1.4.8-2.4,2.6-2.4s1.3.1,1.8.3l-.3,1.2c-.4-.2-.8-.2-1.3-.2-.8,0-1.2.4-1.2,1.1v6.2h-1.6v-6.1h0Z"/>
          <path class="cls-3" d="M46.3,79.7h-2.5v-1.3h4.1v5.9h-1.6v-4.6h0ZM46,76.4c0-.6.5-1,1.1-1s1.1.4,1.1,1-.5,1-1.1,1-1.1-.4-1.1-1Z"/>
          <path class="cls-3" d="M50.8,83.5l.7-1c.7.5,1.5.7,2.4.7s1-.2,1-.6-.3-.5-1.5-.8c-1.6-.3-2.3-.9-2.3-1.8s1-1.8,2.7-1.8,1.9.4,2.5.8l-.7,1c-.6-.4-1.3-.6-2-.6s-.9.2-.9.5.4.5,1.4.7c1.8.4,2.4.9,2.4,1.9s-1,1.9-2.9,1.9-2.2-.4-2.9-.9Z"/>
          <path class="cls-3" d="M58.2,75.9h1.6v3.3c0,0,0,0,0,0,.5-.5,1.1-.9,2-.9,1.3,0,1.9.9,1.9,2.4v3.7h-1.6v-3.4c0-.8-.2-1.2-1-1.2s-.8.2-1.3.7v4h-1.6v-8.4h0Z"/>
        </g>
        <g>
          <path class="cls-1" d="M68.2,82.2c0-2.4,3.2-2.6,3.2-4.2s-.1-.7-.5-.7-.6.3-.6.9c0,1.3,1.6,3,3.1,4,.5.4,1,.7,1.5.8l-.4,1.3c-.7-.2-1.3-.5-2.1-1.1-1.8-1.3-3.5-3.6-3.5-5s.7-2,1.9-2,1.8.7,1.8,1.7c0,2-3,2.5-3,4.1s.5,1.1,1.1,1.1,1-.3,1.4-.8c.5-.6.9-1.4,1.1-2.5h1.5c-.3,1.2-.8,2.2-1.5,3.2-.7.8-1.5,1.3-2.7,1.3s-2.5-1-2.5-2.2h0Z"/>
          <path class="cls-1" d="M75.4,82.2c0-2.4,3.2-2.6,3.2-4.2s-.1-.7-.5-.7-.6.3-.6.9c0,1.3,1.6,3,3.1,4,.5.4,1,.7,1.5.8l-.4,1.3c-.7-.2-1.3-.5-2.1-1.1-1.8-1.3-3.5-3.6-3.5-5s.7-2,1.9-2,1.8.7,1.8,1.7c0,2-2.9,2.5-2.9,4.1s.5,1.1,1.1,1.1,1-.3,1.4-.8c.5-.6.9-1.4,1.1-2.5h1.5c-.3,1.2-.8,2.2-1.5,3.2-.7.8-1.6,1.3-2.7,1.3s-2.5-1-2.5-2.2h0Z"/>
        </g>
        <g>
          <path class="cls-3" d="M36.8,92.6c0-2,1.6-3.1,3.4-3.1s1.7.3,2.2.8l-.8,1c-.5-.3-.9-.5-1.4-.5-1.1,0-1.8.7-1.8,1.8s.7,1.8,1.8,1.8,1.2-.3,1.6-.6l.7,1c-.7.6-1.6.9-2.4.9-1.9,0-3.3-1.1-3.3-3.1h0Z"/>
          <path class="cls-3" d="M44,87.1h1.6v3.3c0,0,0,0,0,0,.5-.5,1.1-.9,2-.9,1.3,0,1.9.9,1.9,2.4v3.7h-1.6v-3.4c0-.8-.2-1.2-.9-1.2s-.8.2-1.3.7v4h-1.6v-8.4h0Z"/>
          <path class="cls-3" d="M53.7,90.9h-2.4v-1.3h4.1v5.9h-1.6v-4.6h0ZM53.4,87.6c0-.6.5-1,1.1-1s1.1.4,1.1,1-.5,1-1.1,1-1.1-.4-1.1-1Z"/>
          <path class="cls-3" d="M58.4,89.6h1.3v.6h.2c.5-.4,1.2-.8,1.8-.8,1.5,0,2.4,1.2,2.4,3s-1.2,3.2-2.6,3.2-1.1-.2-1.5-.7h0v1c0,0,0,1.8,0,1.8h-1.6v-8.2h0ZM62.5,92.5c0-1.1-.4-1.7-1.2-1.7s-.8.2-1.2.6v2.5c.4.3.8.4,1.1.4.7,0,1.3-.6,1.3-1.8h0Z"/>
          <path class="cls-3" d="M65.4,94.8l.7-1c.7.5,1.5.7,2.4.7s1-.2,1-.6-.3-.5-1.5-.8c-1.6-.3-2.3-.9-2.3-1.8s1-1.8,2.7-1.8,1.9.4,2.5.8l-.7,1c-.6-.4-1.3-.6-1.9-.6s-.9.2-.9.5.4.5,1.4.7c1.8.4,2.4.9,2.4,1.9s-1,1.9-2.9,1.9-2.2-.4-2.9-.9Z"/>
        </g>
      </g>
      <text class="cls-2" transform="translate(30.6 10.6)"><tspan x="0" y="0">fish</tspan></text>
    </g>
  </g>
</svg>