<?xml version="1.0" encoding="UTF-8"?>
<svg id="Calque_2" xmlns="http://www.w3.org/2000/svg" viewBox="0 0 172.8 15.41">
  <defs>
    <style>
      .cls-1 {
        fill: #f17a35;
      }

      .cls-2 {
        fill: #f1357a;
      }

      .cls-3 {
        fill: #357af1;
      }
    </style>
  </defs>
  <g id="Calque_1-2" data-name="Calque_1">
    <g>
      <path class="cls-3" d="M3.41,5.32H.96v-1.29h4.08v5.93h-1.64v-4.64ZM3.04,2.02c0-.61.47-1.04,1.11-1.04s1.11.43,1.11,1.04-.47,1.03-1.11,1.03-1.11-.41-1.11-1.03Z"/>
      <path class="cls-3" d="M8.23,4.1l1.64-.07h3.69v1.29h-5.33v-1.22ZM9.81,3.82c0-1.37.79-2.43,2.61-2.43.66,0,1.27.14,1.78.32l-.32,1.21c-.39-.15-.8-.24-1.26-.24-.81,0-1.18.37-1.18,1.13v6.15h-1.63V3.82Z"/>
      <path class="cls-3" d="M16.62,6.63c0-2.26.98-4.11,2.56-5.47l.9.73c-1.46,1.38-2.09,2.83-2.09,4.74s.64,3.35,2.09,4.74l-.9.73c-1.58-1.37-2.56-3.21-2.56-5.47Z"/>
      <path class="cls-2" d="M22.63,4.1l1.64-.07h3.69v1.29h-5.33v-1.22ZM24.21,3.82c0-1.37.79-2.43,2.61-2.43.66,0,1.27.14,1.78.32l-.32,1.21c-.39-.15-.8-.24-1.26-.24-.81,0-1.17.37-1.17,1.13v6.15h-1.63V3.82Z"/>
      <path class="cls-2" d="M32.21,5.32h-2.45v-1.29h4.08v5.93h-1.64v-4.64ZM31.84,2.02c0-.61.47-1.04,1.11-1.04s1.11.43,1.11,1.04-.47,1.03-1.11,1.03-1.11-.41-1.11-1.03Z"/>
      <path class="cls-2" d="M36.67,9.19l.7-1.03c.72.46,1.54.72,2.42.72.71,0,1.03-.25,1.03-.58,0-.35-.28-.5-1.52-.76-1.6-.34-2.26-.92-2.26-1.83,0-1.08,1-1.83,2.68-1.83,1.03,0,1.93.41,2.54.8l-.74.99c-.59-.36-1.28-.58-1.95-.58-.62,0-.91.23-.91.54,0,.36.39.46,1.43.69,1.85.41,2.36.93,2.36,1.89,0,1.06-1.01,1.89-2.88,1.89-1.07,0-2.16-.41-2.9-.91Z"/>
      <path class="cls-2" d="M44.11,1.54h1.64v2.1l-.1,1.19h.04c.46-.49,1.11-.93,2-.93,1.34,0,1.94.9,1.94,2.41v3.67h-1.64v-3.45c0-.84-.25-1.22-.95-1.22-.51,0-.85.24-1.31.69v3.99h-1.64V1.54Z"/>
      <path class="cls-1" d="M57.92,7.88c0-2.39,3.24-2.6,3.24-4.15,0-.38-.14-.65-.53-.65-.34,0-.57.35-.57.92,0,1.28,1.59,3.01,3.08,4,.53.4,1.04.67,1.48.78l-.4,1.33c-.67-.17-1.35-.53-2.07-1.06-1.83-1.31-3.46-3.56-3.46-5.03,0-1.1.74-2.02,1.9-2.02s1.82.69,1.82,1.73c0,1.95-2.95,2.49-2.95,4.06,0,.64.47,1.07,1.14,1.07.48,0,.96-.33,1.38-.82.51-.62.9-1.44,1.12-2.47h1.49c-.3,1.18-.77,2.25-1.48,3.2-.67.8-1.55,1.33-2.72,1.33-1.59,0-2.48-1.01-2.48-2.23Z"/>
      <path class="cls-1" d="M65.12,7.88c0-2.39,3.24-2.6,3.24-4.15,0-.38-.14-.65-.53-.65-.34,0-.57.35-.57.92,0,1.28,1.59,3.01,3.08,4,.53.4,1.04.67,1.48.78l-.4,1.33c-.67-.17-1.35-.53-2.07-1.06-1.83-1.31-3.46-3.56-3.46-5.03,0-1.1.74-2.02,1.9-2.02s1.82.69,1.82,1.73c0,1.95-2.95,2.49-2.95,4.06,0,.64.47,1.07,1.14,1.07.48,0,.96-.33,1.38-.82.51-.62.9-1.44,1.12-2.47h1.49c-.3,1.18-.77,2.25-1.48,3.2-.67.8-1.55,1.33-2.72,1.33-1.59,0-2.48-1.01-2.48-2.23Z"/>
      <path class="cls-2" d="M80.03,7c0-1.98,1.59-3.11,3.41-3.11.94,0,1.71.34,2.21.82l-.76,1.02c-.46-.34-.89-.51-1.36-.51-1.08,0-1.82.7-1.82,1.79s.73,1.78,1.77,1.78c.64,0,1.17-.28,1.6-.59l.67,1.04c-.71.6-1.6.88-2.42.88-1.87,0-3.29-1.14-3.29-3.1Z"/>
      <path class="cls-2" d="M87.3,1.54h1.64v2.1l-.1,1.19h.04c.46-.49,1.11-.93,2-.93,1.34,0,1.94.9,1.94,2.41v3.67h-1.64v-3.45c0-.84-.25-1.22-.95-1.22-.51,0-.85.24-1.31.69v3.99h-1.64V1.54Z"/>
      <path class="cls-2" d="M97.01,5.32h-2.45v-1.29h4.08v5.93h-1.64v-4.64ZM96.63,2.02c0-.61.47-1.04,1.11-1.04s1.11.43,1.11,1.04-.47,1.03-1.11,1.03-1.11-.41-1.11-1.03Z"/>
      <path class="cls-2" d="M101.7,4.03h1.33l.12.63h.04c.49-.45,1.16-.77,1.81-.77,1.5,0,2.39,1.19,2.39,3.02,0,2.03-1.25,3.2-2.59,3.2-.53,0-1.07-.24-1.51-.66h-.04l.08.99v1.78h-1.64V4.03ZM105.73,6.92c0-1.1-.37-1.69-1.19-1.69-.4,0-.79.18-1.2.6v2.48c.37.33.78.44,1.11.44.71,0,1.28-.58,1.28-1.84Z"/>
      <path class="cls-2" d="M108.67,9.19l.7-1.03c.72.46,1.54.72,2.42.72.71,0,1.03-.25,1.03-.58,0-.35-.28-.5-1.52-.76-1.6-.34-2.26-.92-2.26-1.83,0-1.08,1-1.83,2.68-1.83,1.03,0,1.93.41,2.54.8l-.74.99c-.59-.36-1.28-.58-1.95-.58-.62,0-.91.23-.91.54,0,.36.39.46,1.43.69,1.85.41,2.36.93,2.36,1.89,0,1.06-1.01,1.89-2.88,1.89-1.08,0-2.16-.41-2.9-.91Z"/>
      <path class="cls-3" d="M116.7,11.37c1.46-1.38,2.09-2.83,2.09-4.74s-.64-3.36-2.09-4.74l.9-.73c1.58,1.37,2.56,3.21,2.56,5.47s-.98,4.11-2.56,5.47l-.9-.73Z"/>
      <path class="cls-3" d="M125.23,10.09c0-.85.12-1.32.12-2.09,0-.43-.35-.87-1.66-.89v-.97c1.31-.02,1.66-.46,1.66-.89,0-.75-.12-1.26-.12-2.09,0-1.29.7-1.69,2.23-1.69h.89v.87h-.52c-1.04,0-1.26.2-1.26.88,0,.64.06,1.28.06,1.99,0,.89-.33,1.24-1.18,1.39v.05c.86.14,1.18.5,1.18,1.39,0,.74-.06,1.33-.06,1.99s.23.88,1.26.88h.52v.87h-.89c-1.54,0-2.23-.4-2.23-1.69Z"/>
      <path class="cls-3" d="M134.48,1.44h1.38l-3.95,10.43h-1.38l3.95-10.43Z"/>
      <path class="cls-3" d="M141.68,1.44h1.38l-3.95,10.43h-1.38l3.95-10.43Z"/>
      <path class="cls-3" d="M144.68,6.99c0-1.94,1.49-3.1,3.08-3.1,1.81,0,2.78,1.21,2.78,2.84,0,.31-.05.61-.07.76h-4.58v-1.11h3.49l-.27.33c0-1.03-.46-1.56-1.29-1.56-.91,0-1.54.63-1.54,1.86s.72,1.86,1.9,1.86c.57,0,1.05-.16,1.57-.44l.55.99c-.66.43-1.52.7-2.34.7-1.84,0-3.27-1.14-3.27-3.11Z"/>
      <path class="cls-3" d="M151.97,8.33c0-1.33,1.12-2,3.97-2.18-.06-.58-.46-.96-1.31-.96-.6,0-1.2.24-1.85.58l-.59-1.08c.79-.46,1.74-.81,2.75-.81,1.66,0,2.63.88,2.63,2.64v3.43h-1.34l-.12-.69h-.04c-.61.46-1.37.83-2.14.83-1.19,0-1.96-.76-1.96-1.77ZM155.94,8.21v-1.06c-1.88.11-2.39.5-2.39,1.05,0,.43.37.63.9.63s1.03-.25,1.5-.62Z"/>
      <path class="cls-3" d="M160.55,7.53v-2.21h-1.53v-1.22l1.6-.07.21-1.83h1.35v1.83h2.57v1.29h-2.57v2.19c0,.93.38,1.3,1.29,1.3.46,0,.85-.09,1.21-.22l.3,1.19c-.53.16-1.14.33-1.92.33-1.86,0-2.51-1.04-2.51-2.58Z"/>
      <path class="cls-3" d="M166.84,10.91h.51c1.03,0,1.26-.2,1.26-.88s-.05-1.25-.05-1.99c0-.89.32-1.24,1.18-1.39v-.05c-.86-.14-1.18-.5-1.18-1.39,0-.71.05-1.35.05-1.99,0-.69-.23-.88-1.26-.88h-.51v-.87h.89c1.54,0,2.23.4,2.23,1.69,0,.83-.12,1.34-.12,2.09,0,.43.35.87,1.67.89v.97c-1.32.02-1.67.46-1.67.89,0,.77.12,1.24.12,2.09,0,1.29-.69,1.69-2.23,1.69h-.89v-.87Z"/>
    </g>
  </g>
</svg>